<?xml version="1.0" encoding="UTF-8"?>
<svg xmlns="http://www.w3.org/2000/svg" xmlns:xlink="http://www.w3.org/1999/xlink"
     width="101.91499999999999" height="48.965" viewBox="-6.932499999999999 -44.3325 101.91499999999999 48.965">
<defs>
<style type="text/css">
.l21d0 {stroke: rgb(106, 255, 201); fill: rgb(106, 255, 201); fill-opacity: 0.5;}
.l33d0 {stroke: rgb(21, 85, 255); fill: rgb(21, 85, 255); fill-opacity: 0.5;}
.l34d0 {stroke: rgb(255, 42, 100); fill: rgb(255, 42, 100); fill-opacity: 0.5;}
.l63d63 {stroke: rgb(255, 185, 128); fill: rgb(255, 185, 128); fill-opacity: 0.5;}
.l30d0 {stroke: rgb(128, 255, 220); fill: rgb(128, 255, 220); fill-opacity: 0.5;}
.l31d0 {stroke: rgb(226, 149, 255); fill: rgb(226, 149, 255); fill-opacity: 0.5;}
.l32d0 {stroke: rgb(255, 185, 0); fill: rgb(255, 185, 0); fill-opacity: 0.5;}
.l22d0 {stroke: rgb(209, 128, 255); fill: rgb(209, 128, 255); fill-opacity: 0.5;}
</style>
</defs>
<rect x="-6.932499999999999" y="-44.3325" width="101.91499999999999" height="48.965" fill="#222" stroke="none"/>
<g id="gf180mcu_mux" transform="scale(1 -1)">
<polygon class="l30d0" points="26.150000000000002,13.3 28.95,13.3 28.95,35.1 26.150000000000002,35.1"/>
<polygon class="l30d0" points="31.35,13.3 34.15,13.3 34.15,35.1 31.35,35.1"/>
<polygon class="l30d0" points="56.65,13.3 59.45,13.3 59.45,35.1 56.65,35.1"/>
<polygon class="l30d0" points="51.45,13.3 54.25,13.3 54.25,35.1 51.45,35.1"/>
<polygon class="l30d0" points="4.25,0.0 4.25,17.55 4.25,35.1 5.65,35.1 7.05,35.1 7.05,17.55 7.05,0.0"/>
<polygon class="l30d0" points="10.649999999999999,0.0 10.649999999999999,18.700000000000003 10.649999999999999,39.7 12.05,39.7 13.45,39.7 13.45,18.700000000000003 13.45,0.0"/>
<polygon class="l30d0" points="81.65,0.0 81.65,17.55 81.65,35.1 80.25,35.1 78.85,35.1 78.85,17.55 78.85,0.0"/>
<polygon class="l30d0" points="75.25,0.0 75.25,18.700000000000003 75.25,39.7 73.85,39.7 72.45,39.7 72.45,18.700000000000003 72.45,0.0"/>
<polygon class="l21d0" points="42.75,3.4000000000000004 90.35,3.4000000000000004 90.35,31.7 42.75,31.7"/>
<polygon class="l32d0" points="-2.3000000000000003,5.4 40.7,5.4 40.7,29.700000000000003 -2.3000000000000003,29.700000000000003"/>
<polygon class="l31d0" points="44.75000000000001,5.4 88.35000000000001,5.4 88.35000000000001,29.700000000000003 44.75000000000001,29.700000000000003"/>
<polygon class="l34d0" points="0.8999999999999999,10.5 0.8999999999999999,12.31 0.8999999999999999,15.75 4.3,15.75 4.3,14.05 4.3,12.350000000000001 4.3,12.350000000000001 4.3,12.31 4.3,10.5"/>
<polygon class="l34d0" points="1.7000000000000002,8.75 5.6000000000000005,8.75 5.6000000000000005,8.200000000000001 14.9,8.200000000000001 14.9,7.4 14.350000000000001,7.4 14.350000000000001,11.3 16.05,11.3 17.75,11.3 17.75,7.4 17.2,7.4 17.2,5.8999999999999995 5.6000000000000005,5.8999999999999995 5.6000000000000005,5.3500000000000005 1.7000000000000002,5.3500000000000005"/>
<polygon class="l34d0" points="0.8999999999999999,24.6 0.8999999999999999,22.79 0.8999999999999999,19.35 4.3,19.35 4.3,21.05 4.3,22.75 4.3,22.75 4.3,22.79 4.3,24.6"/>
<polygon class="l34d0" points="1.7000000000000002,26.35 5.6000000000000005,26.35 5.6000000000000005,26.9 14.9,26.9 14.9,27.7 14.350000000000001,27.7 14.350000000000001,23.799999999999997 16.05,23.799999999999997 17.75,23.799999999999997 17.75,27.7 17.2,27.7 17.2,29.2 5.6000000000000005,29.2 5.6000000000000005,29.75 1.7000000000000002,29.75"/>
<polygon class="l34d0" points="6.9,24.35 10.8,24.35 10.8,23.799999999999997 12.6,23.799999999999997 12.6,21.5 19.5,21.5 19.5,23.799999999999997 21.6,23.799999999999997 21.6,24.35 25.500000000000004,24.35 25.500000000000004,22.650000000000002 25.500000000000004,20.950000000000003 21.6,20.950000000000003 21.6,21.5 21.8,21.5 21.8,19.2 10.3,19.2 10.3,21.5 10.8,21.5 10.8,20.950000000000003 6.9,20.950000000000003"/>
<polygon class="l34d0" points="7.1499999999999995,10.5 7.1499999999999995,14.399999999999999 7.7,14.399999999999999 7.7,16.400000000000002 35.6,16.400000000000002 35.6,22.25 35.05,22.25 35.05,26.150000000000002 36.75,26.150000000000002 38.45,26.150000000000002 38.45,22.25 37.9,22.25 37.9,14.1 10.0,14.1 10.0,14.399999999999999 10.549999999999999,14.399999999999999 10.549999999999999,10.5"/>
<polygon class="l34d0" points="85.15,10.35 85.15,12.16 85.15,15.600000000000001 81.30000000000001,15.600000000000001 81.30000000000001,13.900000000000002 81.30000000000001,12.2 81.75,12.2 81.75,12.16 81.75,10.35"/>
<polygon class="l34d0" points="84.2,8.6 80.3,8.6 80.3,8.05 71.0,8.05 71.0,7.55 71.55,7.55 71.55,11.45 69.85000000000001,11.45 68.15,11.45 68.15,7.55 68.7,7.55 68.7,5.750000000000001 80.3,5.750000000000001 80.3,5.2 84.2,5.2"/>
<polygon class="l34d0" points="85.15,24.75 85.15,22.94 85.15,19.5 81.30000000000001,19.5 81.30000000000001,21.200000000000003 81.30000000000001,22.9 81.75,22.9 81.75,22.94 81.75,24.75"/>
<polygon class="l34d0" points="84.2,26.5 80.3,26.5 80.3,27.05 71.0,27.05 71.0,27.549999999999997 71.55,27.549999999999997 71.55,23.650000000000002 69.85000000000001,23.650000000000002 68.15,23.650000000000002 68.15,27.549999999999997 68.7,27.549999999999997 68.7,29.35 80.3,29.35 80.3,29.900000000000002 84.2,29.900000000000002"/>
<polygon class="l34d0" points="79.0,24.5 75.1,24.5 75.1,23.95 73.3,23.95 73.3,21.35 66.4,21.35 66.4,23.95 64.0,23.95 64.0,24.5 60.099999999999994,24.5 60.099999999999994,22.800000000000004 60.099999999999994,21.099999999999998 64.0,21.099999999999998 64.0,21.65 64.1,21.65 64.1,19.05 75.60000000000001,19.05 75.60000000000001,21.65 75.1,21.65 75.1,21.099999999999998 79.0,21.099999999999998"/>
<polygon class="l34d0" points="78.75,10.35 78.75,14.25 78.2,14.25 78.2,16.400000000000002 50.0,16.400000000000002 50.0,22.25 50.55,22.25 50.55,26.150000000000002 48.849999999999994,26.150000000000002 47.15,26.150000000000002 47.15,22.25 47.7,22.25 47.7,14.1 75.9,14.1 75.9,14.25 75.35,14.25 75.35,10.35"/>
<polygon class="l63d63" points="2.5,12.9 4.8,12.9 4.8,15.2 2.5,15.2"/>
<polygon class="l63d63" points="2.5,5.8999999999999995 4.8,5.8999999999999995 4.8,8.200000000000001 2.5,8.200000000000001"/>
<polygon class="l63d63" points="2.5,19.89 4.8,19.89 4.8,22.189999999999998 2.5,22.189999999999998"/>
<polygon class="l63d63" points="2.5,26.89 4.8,26.89 4.8,29.19 2.5,29.19"/>
<polygon class="l63d63" points="81.1,12.750000000000002 83.4,12.750000000000002 83.4,15.05 81.1,15.05"/>
<polygon class="l63d63" points="81.1,5.750000000000001 83.4,5.750000000000001 83.4,8.05 81.1,8.05"/>
<polygon class="l63d63" points="81.1,20.04 83.4,20.04 83.4,22.34 81.1,22.34"/>
<polygon class="l63d63" points="81.1,27.040000000000003 83.4,27.040000000000003 83.4,29.340000000000003 81.1,29.340000000000003"/>
<polygon class="l22d0" points="77.05,7.7 86.05000000000001,7.7 86.05000000000001,14.1 77.05,14.1"/>
<polygon class="l22d0" points="77.05,21.0 86.05000000000001,21.0 86.05000000000001,27.400000000000002 77.05,27.400000000000002"/>
<polygon class="l22d0" points="68.05,7.7 77.05,7.7 77.05,14.1 68.05,14.1"/>
<polygon class="l22d0" points="68.05,21.0 77.05,21.0 77.05,27.400000000000002 68.05,27.400000000000002"/>
<polygon class="l22d0" points="55.45,21.0 63.849999999999994,21.0 63.849999999999994,27.400000000000002 55.45,27.400000000000002"/>
<polygon class="l22d0" points="47.05,21.0 55.45,21.0 55.45,27.400000000000002 47.05,27.400000000000002"/>
<polygon class="l22d0" points="0.0,7.7 8.85,7.7 8.85,14.1 0.0,14.1"/>
<polygon class="l22d0" points="0.0,21.0 8.85,21.0 8.85,27.400000000000002 0.0,27.400000000000002"/>
<polygon class="l22d0" points="8.85,7.7 17.7,7.7 17.7,14.1 8.85,14.1"/>
<polygon class="l22d0" points="8.85,21.0 17.7,21.0 17.7,27.400000000000002 8.85,27.400000000000002"/>
<polygon class="l22d0" points="21.9,21.0 30.150000000000002,21.0 30.150000000000002,27.400000000000002 21.9,27.400000000000002"/>
<polygon class="l22d0" points="30.150000000000002,21.0 38.4,21.0 38.4,27.400000000000002 30.150000000000002,27.400000000000002"/>
<polygon class="l33d0" points="1.45,11.3 3.75,11.3 3.75,13.600000000000001 1.45,13.600000000000001"/>
<polygon class="l33d0" points="1.45,21.5 3.75,21.5 3.75,23.799999999999997 1.45,23.799999999999997"/>
<polygon class="l33d0" points="7.7,11.3 10.0,11.3 10.0,13.600000000000001 7.7,13.600000000000001"/>
<polygon class="l33d0" points="7.7,21.5 10.0,21.5 10.0,23.799999999999997 7.7,23.799999999999997"/>
<polygon class="l33d0" points="14.9,8.200000000000001 17.2,8.200000000000001 17.2,10.5 14.9,10.5"/>
<polygon class="l33d0" points="14.9,24.6 17.2,24.6 17.2,26.9 14.9,26.9"/>
<polygon class="l33d0" points="22.400000000000002,21.5 24.700000000000003,21.5 24.700000000000003,23.799999999999997 22.400000000000002,23.799999999999997"/>
<polygon class="l33d0" points="35.6,23.05 37.9,23.05 37.9,25.35 35.6,25.35"/>
<polygon class="l33d0" points="82.30000000000001,11.15 84.60000000000001,11.15 84.60000000000001,13.45 82.30000000000001,13.45"/>
<polygon class="l33d0" points="82.30000000000001,21.65 84.60000000000001,21.65 84.60000000000001,23.95 82.30000000000001,23.95"/>
<polygon class="l33d0" points="75.9,11.15 78.2,11.15 78.2,13.45 75.9,13.45"/>
<polygon class="l33d0" points="75.9,21.65 78.2,21.65 78.2,23.95 75.9,23.95"/>
<polygon class="l33d0" points="68.7,8.35 71.0,8.35 71.0,10.649999999999999 68.7,10.649999999999999"/>
<polygon class="l33d0" points="68.7,24.45 71.0,24.45 71.0,26.750000000000004 68.7,26.750000000000004"/>
<polygon class="l33d0" points="60.9,21.65 63.2,21.65 63.2,23.95 60.9,23.95"/>
<polygon class="l33d0" points="47.7,23.05 50.0,23.05 50.0,25.35 47.7,25.35"/>
</g>
</svg>