<?xml version="1.0" encoding="UTF-8"?>
<svg xmlns="http://www.w3.org/2000/svg" xmlns:xlink="http://www.w3.org/1999/xlink"
     width="59.455000000000005" height="53.10500000000001" viewBox="-3.1525 -49.55250000000001 59.455000000000005 53.10500000000001">
<defs>
<style type="text/css">
.l67d20 {stroke: rgb(74, 128, 74); fill: rgb(74, 128, 74); fill-opacity: 0.5;}
.l68d20 {stroke: rgb(0, 0, 128); fill: rgb(0, 0, 128); fill-opacity: 0.5;}
.l66d20 {stroke: rgb(128, 64, 64); fill: rgb(128, 64, 64); fill-opacity: 0.5;}
.l65d20 {stroke: rgb(87, 53, 128); fill: rgb(87, 53, 128); fill-opacity: 0.5;}
.l67d16 {stroke: rgb(48, 191, 48); fill: rgb(48, 191, 48); fill-opacity: 0.5;}
.l66d44 {stroke: rgb(128, 64, 64); fill: rgb(128, 64, 64); fill-opacity: 0.5;}
.l67d44 {stroke: rgb(74, 128, 74); fill: rgb(74, 128, 74); fill-opacity: 0.5;}
</style>
</defs>
<rect x="-3.1525" y="-49.55250000000001" width="59.455000000000005" height="53.10500000000001" fill="#222" stroke="none"/>
<g id="sky130_mux" transform="scale(1 -1)">
<polygon class="l65d20" points="0.0,26.400000000000002 5.85,26.400000000000002 5.85,32.800000000000004 0.0,32.800000000000004"/>
<polygon class="l65d20" points="0.0,36.2 5.85,36.2 5.85,42.599999999999994 0.0,42.599999999999994"/>
<polygon class="l65d20" points="5.85,26.400000000000002 11.799999999999999,26.400000000000002 11.799999999999999,32.800000000000004 5.85,32.800000000000004"/>
<polygon class="l65d20" points="5.85,36.2 11.799999999999999,36.2 11.799999999999999,42.599999999999994 5.85,42.599999999999994"/>
<polygon class="l65d20" points="14.9,36.2 20.85,36.2 20.85,42.599999999999994 14.9,42.599999999999994"/>
<polygon class="l65d20" points="20.85,36.2 26.8,36.2 26.8,42.599999999999994 20.85,42.599999999999994"/>
<polygon class="l65d20" points="47.75,26.400000000000002 53.6,26.400000000000002 53.6,32.800000000000004 47.75,32.800000000000004"/>
<polygon class="l65d20" points="47.75,36.2 53.6,36.2 53.6,42.599999999999994 47.75,42.599999999999994"/>
<polygon class="l65d20" points="41.8,26.400000000000002 47.75,26.400000000000002 47.75,32.800000000000004 41.8,32.800000000000004"/>
<polygon class="l65d20" points="41.8,36.2 47.75,36.2 47.75,42.599999999999994 41.8,42.599999999999994"/>
<polygon class="l65d20" points="32.75,36.2 38.7,36.2 38.7,42.599999999999994 32.75,42.599999999999994"/>
<polygon class="l65d20" points="26.8,36.2 32.75,36.2 32.75,42.599999999999994 26.8,42.599999999999994"/>
<polygon class="l65d20" points="47.75,13.200000000000001 53.6,13.200000000000001 53.6,19.6 47.75,19.6"/>
<polygon class="l65d20" points="47.75,3.4000000000000004 53.6,3.4000000000000004 53.6,9.8 47.75,9.8"/>
<polygon class="l65d20" points="41.8,13.200000000000001 47.75,13.200000000000001 47.75,19.6 41.8,19.6"/>
<polygon class="l65d20" points="41.8,3.4000000000000004 47.75,3.4000000000000004 47.75,9.8 41.8,9.8"/>
<polygon class="l65d20" points="32.75,3.4000000000000004 38.7,3.4000000000000004 38.7,9.8 32.75,9.8"/>
<polygon class="l65d20" points="26.8,3.4000000000000004 32.75,3.4000000000000004 32.75,9.8 26.8,9.8"/>
<polygon class="l65d20" points="0.0,13.200000000000001 5.85,13.200000000000001 5.85,19.6 0.0,19.6"/>
<polygon class="l65d20" points="0.0,3.4000000000000004 5.85,3.4000000000000004 5.85,9.8 0.0,9.8"/>
<polygon class="l65d20" points="5.85,13.200000000000001 11.799999999999999,13.200000000000001 11.799999999999999,19.6 5.85,19.6"/>
<polygon class="l65d20" points="5.85,3.4000000000000004 11.799999999999999,3.4000000000000004 11.799999999999999,9.8 5.85,9.8"/>
<polygon class="l65d20" points="14.9,3.4000000000000004 20.85,3.4000000000000004 20.85,9.8 14.9,9.8"/>
<polygon class="l65d20" points="20.85,3.4000000000000004 26.8,3.4000000000000004 26.8,9.8 20.85,9.8"/>
<polygon class="l67d20" points="0.4,27.95 0.4,31.950000000000003 0.0,31.950000000000003 0.0,32.800000000000004 0.0,33.650000000000006 2.1,33.650000000000006 2.1,27.95"/>
<polygon class="l67d20" points="0.0,26.25 10.1,26.25 10.1,31.25 10.95,31.25 11.799999999999999,31.25 11.799999999999999,24.55 0.0,24.55"/>
<polygon class="l67d20" points="0.4,41.050000000000004 0.4,37.05 0.0,37.05 0.0,36.2 0.0,35.35 2.1,35.35 2.1,41.050000000000004"/>
<polygon class="l67d20" points="0.0,42.75 10.1,42.75 10.1,37.75 10.95,37.75 11.799999999999999,37.75 11.799999999999999,44.45 0.0,44.45"/>
<polygon class="l67d20" points="6.7,41.050000000000004 6.7,36.9 14.9,36.9 14.9,41.050000000000004 15.75,41.050000000000004 16.6,41.050000000000004 16.6,35.2 5.0,35.2 5.0,41.050000000000004"/>
<polygon class="l67d20" points="5.0,27.95 5.0,33.8 25.1,33.8 25.1,41.050000000000004 25.950000000000003,41.050000000000004 26.8,41.050000000000004 26.8,32.1 6.7,32.1 6.7,27.95"/>
<polygon class="l67d20" points="53.2,27.95 53.2,31.950000000000003 53.6,31.950000000000003 53.6,32.800000000000004 53.6,33.650000000000006 51.5,33.650000000000006 51.5,27.95"/>
<polygon class="l67d20" points="53.6,26.25 43.50000000000001,26.25 43.50000000000001,31.25 42.65,31.25 41.8,31.25 41.8,24.55 53.6,24.55"/>
<polygon class="l67d20" points="53.2,41.050000000000004 53.2,37.05 53.6,37.05 53.6,36.2 53.6,35.35 51.5,35.35 51.5,41.050000000000004"/>
<polygon class="l67d20" points="53.6,42.75 43.50000000000001,42.75 43.50000000000001,37.75 42.65,37.75 41.8,37.75 41.8,44.45 53.6,44.45"/>
<polygon class="l67d20" points="46.900000000000006,41.050000000000004 46.900000000000006,36.9 38.7,36.9 38.7,41.050000000000004 37.85,41.050000000000004 37.0,41.050000000000004 37.0,35.2 48.6,35.2 48.6,41.050000000000004"/>
<polygon class="l67d20" points="48.6,27.95 48.6,33.8 28.5,33.8 28.5,41.050000000000004 27.650000000000002,41.050000000000004 26.8,41.050000000000004 26.8,32.1 46.900000000000006,32.1 46.900000000000006,27.95"/>
<polygon class="l67d20" points="53.2,18.05 53.2,14.05 53.6,14.05 53.6,13.200000000000001 53.6,12.350000000000001 51.5,12.350000000000001 51.5,18.05"/>
<polygon class="l67d20" points="53.6,19.75 43.50000000000001,19.75 43.50000000000001,14.75 42.65,14.75 41.8,14.75 41.8,21.45 53.6,21.45"/>
<polygon class="l67d20" points="53.2,4.95 53.2,8.95 53.6,8.95 53.6,9.8 53.6,10.649999999999999 51.5,10.649999999999999 51.5,4.95"/>
<polygon class="l67d20" points="53.6,3.25 43.50000000000001,3.25 43.50000000000001,8.25 42.65,8.25 41.8,8.25 41.8,1.55 53.6,1.55"/>
<polygon class="l67d20" points="46.900000000000006,4.95 46.900000000000006,9.1 38.7,9.1 38.7,4.95 37.85,4.95 37.0,4.95 37.0,10.8 48.6,10.8 48.6,4.95"/>
<polygon class="l67d20" points="48.6,18.05 48.6,12.2 28.5,12.2 28.5,4.95 27.650000000000002,4.95 26.8,4.95 26.8,13.900000000000002 46.900000000000006,13.900000000000002 46.900000000000006,18.05"/>
<polygon class="l67d20" points="0.4,18.05 0.4,14.05 0.0,14.05 0.0,13.200000000000001 0.0,12.350000000000001 2.1,12.350000000000001 2.1,18.05"/>
<polygon class="l67d20" points="0.0,19.75 10.1,19.75 10.1,14.75 10.95,14.75 11.799999999999999,14.75 11.799999999999999,21.45 0.0,21.45"/>
<polygon class="l67d20" points="0.4,4.95 0.4,8.95 0.0,8.95 0.0,9.8 0.0,10.649999999999999 2.1,10.649999999999999 2.1,4.95"/>
<polygon class="l67d20" points="0.0,3.25 10.1,3.25 10.1,8.25 10.95,8.25 11.799999999999999,8.25 11.799999999999999,1.55 0.0,1.55"/>
<polygon class="l67d20" points="6.7,4.95 6.7,9.1 14.9,9.1 14.9,4.95 15.75,4.95 16.6,4.95 16.6,10.8 5.0,10.8 5.0,4.95"/>
<polygon class="l67d20" points="5.0,18.05 5.0,12.2 25.1,12.2 25.1,4.95 25.950000000000003,4.95 26.8,4.95 26.8,13.900000000000002 6.7,13.900000000000002 6.7,18.05"/>
<polygon class="l67d20" points="5.0,22.15 -0.44999999999999996,22.15 -0.44999999999999996,23.000000000000004 -0.44999999999999996,23.85 5.0,23.85"/>
<polygon class="l67d20" points="5.0,-0.8500000000000001 -0.44999999999999996,-0.8500000000000001 -0.44999999999999996,0.0 -0.44999999999999996,0.8500000000000001 5.0,0.8500000000000001"/>
<polygon class="l67d20" points="5.0,45.15 -0.44999999999999996,45.15 -0.44999999999999996,46.00000000000001 -0.44999999999999996,46.85000000000001 5.0,46.85000000000001"/>
<polygon class="l67d20" points="6.7,23.85 13.049999999999999,23.85 13.049999999999999,23.000000000000004 13.049999999999999,22.15 6.7,22.15"/>
<polygon class="l67d20" points="6.7,0.8500000000000001 13.049999999999999,0.8500000000000001 13.049999999999999,0.0 13.049999999999999,-0.8500000000000001 6.7,-0.8500000000000001"/>
<polygon class="l67d20" points="6.7,46.85000000000001 13.049999999999999,46.85000000000001 13.049999999999999,46.00000000000001 13.049999999999999,45.15 6.7,45.15"/>
<polygon class="l67d16" points="0.4,31.950000000000003 2.1,31.950000000000003 2.1,33.650000000000006 0.4,33.650000000000006"/>
<polygon class="l67d16" points="0.0,24.55 1.7000000000000002,24.55 1.7000000000000002,26.25 0.0,26.25"/>
<polygon class="l67d16" points="0.4,35.35 2.1,35.35 2.1,37.05 0.4,37.05"/>
<polygon class="l67d16" points="0.0,42.75 1.7000000000000002,42.75 1.7000000000000002,44.45 0.0,44.45"/>
<polygon class="l67d16" points="51.5,31.950000000000003 53.2,31.950000000000003 53.2,33.650000000000006 51.5,33.650000000000006"/>
<polygon class="l67d16" points="51.900000000000006,24.55 53.6,24.55 53.6,26.25 51.900000000000006,26.25"/>
<polygon class="l67d16" points="51.5,35.35 53.2,35.35 53.2,37.05 51.5,37.05"/>
<polygon class="l67d16" points="51.900000000000006,42.75 53.6,42.75 53.6,44.45 51.900000000000006,44.45"/>
<polygon class="l67d16" points="51.5,12.350000000000001 53.2,12.350000000000001 53.2,14.05 51.5,14.05"/>
<polygon class="l67d16" points="51.900000000000006,19.75 53.6,19.75 53.6,21.45 51.900000000000006,21.45"/>
<polygon class="l67d16" points="51.5,8.95 53.2,8.95 53.2,10.649999999999999 51.5,10.649999999999999"/>
<polygon class="l67d16" points="51.900000000000006,1.55 53.6,1.55 53.6,3.25 51.900000000000006,3.25"/>
<polygon class="l67d16" points="0.4,12.350000000000001 2.1,12.350000000000001 2.1,14.05 0.4,14.05"/>
<polygon class="l67d16" points="0.0,19.75 1.7000000000000002,19.75 1.7000000000000002,21.45 0.0,21.45"/>
<polygon class="l67d16" points="0.4,8.95 2.1,8.95 2.1,10.649999999999999 0.4,10.649999999999999"/>
<polygon class="l67d16" points="0.0,1.55 1.7000000000000002,1.55 1.7000000000000002,3.25 0.0,3.25"/>
<polygon class="l66d44" points="0.4,28.75 2.1,28.75 2.1,30.45 0.4,30.45"/>
<polygon class="l66d44" points="0.4,38.55 2.1,38.55 2.1,40.25 0.4,40.25"/>
<polygon class="l66d44" points="5.0,28.75 6.7,28.75 6.7,30.45 5.0,30.45"/>
<polygon class="l66d44" points="5.0,38.55 6.7,38.55 6.7,40.25 5.0,40.25"/>
<polygon class="l66d44" points="10.1,28.75 11.799999999999999,28.75 11.799999999999999,30.45 10.1,30.45"/>
<polygon class="l66d44" points="10.1,38.55 11.799999999999999,38.55 11.799999999999999,40.25 10.1,40.25"/>
<polygon class="l66d44" points="14.9,38.55 16.6,38.55 16.6,40.25 14.9,40.25"/>
<polygon class="l66d44" points="25.1,38.55 26.8,38.55 26.8,40.25 25.1,40.25"/>
<polygon class="l66d44" points="51.5,28.75 53.2,28.75 53.2,30.45 51.5,30.45"/>
<polygon class="l66d44" points="51.5,38.55 53.2,38.55 53.2,40.25 51.5,40.25"/>
<polygon class="l66d44" points="46.900000000000006,28.75 48.6,28.75 48.6,30.45 46.900000000000006,30.45"/>
<polygon class="l66d44" points="46.900000000000006,38.55 48.6,38.55 48.6,40.25 46.900000000000006,40.25"/>
<polygon class="l66d44" points="41.8,28.75 43.50000000000001,28.75 43.50000000000001,30.45 41.8,30.45"/>
<polygon class="l66d44" points="41.8,38.55 43.50000000000001,38.55 43.50000000000001,40.25 41.8,40.25"/>
<polygon class="l66d44" points="37.0,38.55 38.7,38.55 38.7,40.25 37.0,40.25"/>
<polygon class="l66d44" points="26.8,38.55 28.5,38.55 28.5,40.25 26.8,40.25"/>
<polygon class="l66d44" points="51.5,15.549999999999999 53.2,15.549999999999999 53.2,17.25 51.5,17.25"/>
<polygon class="l66d44" points="51.5,5.750000000000001 53.2,5.750000000000001 53.2,7.45 51.5,7.45"/>
<polygon class="l66d44" points="46.900000000000006,15.549999999999999 48.6,15.549999999999999 48.6,17.25 46.900000000000006,17.25"/>
<polygon class="l66d44" points="46.900000000000006,5.750000000000001 48.6,5.750000000000001 48.6,7.45 46.900000000000006,7.45"/>
<polygon class="l66d44" points="41.8,15.549999999999999 43.50000000000001,15.549999999999999 43.50000000000001,17.25 41.8,17.25"/>
<polygon class="l66d44" points="41.8,5.750000000000001 43.50000000000001,5.750000000000001 43.50000000000001,7.45 41.8,7.45"/>
<polygon class="l66d44" points="37.0,5.750000000000001 38.7,5.750000000000001 38.7,7.45 37.0,7.45"/>
<polygon class="l66d44" points="26.8,5.750000000000001 28.5,5.750000000000001 28.5,7.45 26.8,7.45"/>
<polygon class="l66d44" points="0.4,15.549999999999999 2.1,15.549999999999999 2.1,17.25 0.4,17.25"/>
<polygon class="l66d44" points="0.4,5.750000000000001 2.1,5.750000000000001 2.1,7.45 0.4,7.45"/>
<polygon class="l66d44" points="5.0,15.549999999999999 6.7,15.549999999999999 6.7,17.25 5.0,17.25"/>
<polygon class="l66d44" points="5.0,5.750000000000001 6.7,5.750000000000001 6.7,7.45 5.0,7.45"/>
<polygon class="l66d44" points="10.1,15.549999999999999 11.799999999999999,15.549999999999999 11.799999999999999,17.25 10.1,17.25"/>
<polygon class="l66d44" points="10.1,5.750000000000001 11.799999999999999,5.750000000000001 11.799999999999999,7.45 10.1,7.45"/>
<polygon class="l66d44" points="14.9,5.750000000000001 16.6,5.750000000000001 16.6,7.45 14.9,7.45"/>
<polygon class="l66d44" points="25.1,5.750000000000001 26.8,5.750000000000001 26.8,7.45 25.1,7.45"/>
<polygon class="l66d44" points="2.5,22.15 4.2,22.15 4.2,23.85 2.5,23.85"/>
<polygon class="l66d44" points="2.5,-0.8500000000000001 4.2,-0.8500000000000001 4.2,0.8500000000000001 2.5,0.8500000000000001"/>
<polygon class="l66d44" points="2.5,45.15 4.2,45.15 4.2,46.85000000000001 2.5,46.85000000000001"/>
<polygon class="l66d44" points="7.5,22.15 9.200000000000001,22.15 9.200000000000001,23.85 7.5,23.85"/>
<polygon class="l66d44" points="7.5,-0.8500000000000001 9.200000000000001,-0.8500000000000001 9.200000000000001,0.8500000000000001 7.5,0.8500000000000001"/>
<polygon class="l66d44" points="7.5,45.15 9.200000000000001,45.15 9.200000000000001,46.85000000000001 7.5,46.85000000000001"/>
<polygon class="l67d44" points="0.35000000000000003,22.15 2.0500000000000003,22.15 2.0500000000000003,23.85 0.35000000000000003,23.85"/>
<polygon class="l67d44" points="0.35000000000000003,-0.8500000000000001 2.0500000000000003,-0.8500000000000001 2.0500000000000003,0.8500000000000001 0.35000000000000003,0.8500000000000001"/>
<polygon class="l67d44" points="0.35000000000000003,45.15 2.0500000000000003,45.15 2.0500000000000003,46.85000000000001 0.35000000000000003,46.85000000000001"/>
<polygon class="l67d44" points="10.549999999999999,22.15 12.25,22.15 12.25,23.85 10.549999999999999,23.85"/>
<polygon class="l67d44" points="10.549999999999999,-0.8500000000000001 12.25,-0.8500000000000001 12.25,0.8500000000000001 10.549999999999999,0.8500000000000001"/>
<polygon class="l67d44" points="10.549999999999999,45.15 12.25,45.15 12.25,46.85000000000001 10.549999999999999,46.85000000000001"/>
<polygon class="l68d20" points="0.5,0.0 1.9,0.0 1.9,46.00000000000001 0.5,46.00000000000001"/>
<polygon class="l68d20" points="10.700000000000001,0.0 12.1,0.0 12.1,46.00000000000001 10.700000000000001,46.00000000000001"/>
<polygon class="l68d20" points="14.1,0.0 15.5,0.0 15.5,46.00000000000001 14.1,46.00000000000001"/>
<polygon class="l68d20" points="24.3,0.0 25.7,0.0 25.7,46.00000000000001 24.3,46.00000000000001"/>
<polygon class="l66d20" points="2.5,23.000000000000004 4.2,23.000000000000004 4.2,46.00000000000001 2.5,46.00000000000001"/>
<polygon class="l66d20" points="7.5,23.000000000000004 9.200000000000001,23.000000000000004 9.200000000000001,46.00000000000001 7.5,46.00000000000001"/>
<polygon class="l66d20" points="17.5,32.800000000000004 19.2,32.800000000000004 19.2,46.00000000000001 17.5,46.00000000000001"/>
<polygon class="l66d20" points="22.5,32.800000000000004 24.2,32.800000000000004 24.2,46.00000000000001 22.5,46.00000000000001"/>
<polygon class="l66d20" points="49.400000000000006,23.000000000000004 51.1,23.000000000000004 51.1,46.00000000000001 49.400000000000006,46.00000000000001"/>
<polygon class="l66d20" points="44.400000000000006,23.000000000000004 46.1,23.000000000000004 46.1,46.00000000000001 44.400000000000006,46.00000000000001"/>
<polygon class="l66d20" points="34.4,32.800000000000004 36.1,32.800000000000004 36.1,46.00000000000001 34.4,46.00000000000001"/>
<polygon class="l66d20" points="29.4,32.800000000000004 31.099999999999998,32.800000000000004 31.099999999999998,46.00000000000001 29.4,46.00000000000001"/>
<polygon class="l66d20" points="49.400000000000006,0.0 51.1,0.0 51.1,23.000000000000004 49.400000000000006,23.000000000000004"/>
<polygon class="l66d20" points="44.400000000000006,0.0 46.1,0.0 46.1,23.000000000000004 44.400000000000006,23.000000000000004"/>
<polygon class="l66d20" points="34.4,0.0 36.1,0.0 36.1,13.200000000000001 34.4,13.200000000000001"/>
<polygon class="l66d20" points="29.4,0.0 31.099999999999998,0.0 31.099999999999998,13.200000000000001 29.4,13.200000000000001"/>
<polygon class="l66d20" points="2.5,0.0 4.2,0.0 4.2,23.000000000000004 2.5,23.000000000000004"/>
<polygon class="l66d20" points="7.5,0.0 9.200000000000001,0.0 9.200000000000001,23.000000000000004 7.5,23.000000000000004"/>
<polygon class="l66d20" points="17.5,0.0 19.2,0.0 19.2,13.200000000000001 17.5,13.200000000000001"/>
<polygon class="l66d20" points="22.5,0.0 24.2,0.0 24.2,13.200000000000001 22.5,13.200000000000001"/>
</g>
</svg>